<svg width="100" height="100" viewBox="0 0 100 100" fill="none" xmlns="http://www.w3.org/2000/svg">
<path d="M98.6422 96.002H1.9082V96.202H98.6422V96.002Z" fill="#263238"/>
<g opacity="0.7">
<path d="M41.4001 47.8236C40.6121 48.5996 38.2741 49.4236 38.2721 49.4236C38.2701 49.4236 38.1901 47.7176 38.2001 47.6076C38.3001 46.3496 39.2361 43.9796 40.6121 43.6556C41.6121 43.4236 42.4881 44.1656 42.6121 45.1336C42.7361 46.1016 42.0761 47.1616 41.4001 47.8236Z" fill="#FFAF33"/>
<path d="M40.0003 79.2818C40.0103 79.3378 40.0223 79.3898 40.0323 79.4458L39.2983 80.1238C39.2583 79.8978 39.2163 79.6678 39.1763 79.4318C39.0603 78.7618 38.9503 78.0438 38.8423 77.3038C38.1305 77.2937 37.4199 77.241 36.7143 77.1458C36.3143 78.1358 34.9143 79.6558 34.7323 79.8498C35.1883 80.3398 35.6383 80.8098 36.0703 81.2498C36.3663 81.5518 36.6523 81.8398 36.9323 82.1158L36.0563 82.4518C35.8563 82.2518 35.6663 82.0518 35.4663 81.8298C35.0003 81.3358 34.5103 80.7978 34.0143 80.2398C33.7863 80.3878 31.9123 81.5778 30.8843 81.7258C29.9503 81.8598 28.7243 81.7718 28.0163 81.0698C27.3083 80.3678 27.2663 79.2298 28.0523 78.5818C29.1423 77.6838 31.5963 78.3818 32.6523 79.0538C32.7143 79.0938 33.3463 79.6058 33.7403 79.9358C33.5403 79.7058 33.3403 79.4858 33.1403 79.2478C32.7403 78.7798 32.3403 78.3018 31.9143 77.7878C31.7183 77.5318 31.5183 77.2738 31.3143 77.0138C31.1143 76.7598 30.9283 76.4658 30.7303 76.1898C30.2863 75.5398 29.8683 74.8618 29.4643 74.1678C29.0523 74.5238 27.5763 75.7678 26.6643 76.0418C25.7523 76.3158 24.5383 76.4158 23.7303 75.8298C22.9223 75.2438 22.7103 74.1238 23.3883 73.3638C24.3303 72.3098 26.8603 72.6218 28.0143 73.1318C28.0863 73.1638 28.8723 73.6258 29.3003 73.8858C29.0583 73.4678 28.8163 73.0498 28.5863 72.6178C27.9243 71.3718 27.2923 70.0898 26.6543 68.8178C26.4543 68.4278 26.2543 68.0398 26.0543 67.6518C25.9083 67.7798 24.1863 69.2958 23.1723 69.6058C22.2703 69.8798 21.0443 69.9778 20.2383 69.3918C19.4323 68.8058 19.2183 67.6858 19.8963 66.9258C20.8383 65.8718 23.3663 66.1838 24.5203 66.6958C24.6083 66.7338 25.7383 67.3978 26.0183 67.5798C25.5823 66.7258 25.1403 65.8758 24.6703 65.0578C24.0425 63.9468 23.343 62.8779 22.5763 61.8578C22.5083 61.9178 20.7183 63.5078 19.6783 63.8238C18.7763 64.0978 17.5523 64.1978 16.7443 63.6118C15.9363 63.0258 15.7243 61.9058 16.4043 61.1458C17.3443 60.0918 19.8743 60.4018 21.0283 60.9138C21.1183 60.9538 22.3343 61.6698 22.5463 61.8138C22.5003 61.7558 22.4623 61.6898 22.4163 61.6318C21.6225 60.6313 20.741 59.7036 19.7823 58.8598C19.2583 58.3878 18.7303 57.9658 18.2063 57.5658C17.9043 57.8958 16.5023 59.3918 15.6063 59.7798C14.7403 60.1518 13.5323 60.3798 12.6663 59.8898C11.8003 59.3998 11.4663 58.3058 12.0663 57.4758C12.8863 56.3258 15.4343 56.3558 16.6363 56.7378C16.7023 56.7598 17.3443 57.0438 17.8083 57.2578C17.5703 57.0818 17.3263 56.8958 17.0943 56.7298C16.2243 56.1098 15.3883 55.5958 14.6463 55.1458C14.2203 54.8938 13.8323 54.6738 13.4643 54.4718C12.9983 54.6418 11.1103 55.2998 10.1463 55.2298C9.18233 55.1598 8.02833 54.8098 7.48633 53.9718C6.94433 53.1338 7.15033 52.0138 8.05633 51.5498C9.31433 50.9058 11.5623 52.1078 12.4563 53.0018C12.5323 53.0778 13.5983 54.4238 13.5743 54.4338L13.5463 54.4438C13.9023 54.6298 14.2823 54.8438 14.6923 55.0678C15.4483 55.5018 16.2923 55.9978 17.1843 56.6018C18.1471 57.2424 19.072 57.9382 19.9543 58.6858C20.9466 59.5182 21.8623 60.4378 22.6903 61.4338C22.7003 61.4438 22.7083 61.4578 22.7183 61.4698C22.5643 61.0858 22.1663 59.9978 22.1463 59.9118C21.8503 58.6838 22.0003 56.1398 23.2063 55.4038C24.0743 54.8718 25.1463 55.3018 25.5703 56.1838C25.9943 57.0658 25.6843 58.2698 25.2503 59.1078C24.7643 60.0518 22.9543 61.4798 22.8083 61.5918C23.6276 62.6251 24.3766 63.7122 25.0503 64.8458C25.4503 65.5038 25.8243 66.1778 26.1963 66.8598C26.0723 66.5238 25.9643 66.2218 25.9543 66.1778C25.6583 64.9518 25.8083 62.4078 27.0143 61.6698C27.8823 61.1398 28.9563 61.5698 29.3783 62.4498C29.8003 63.3298 29.4923 64.5378 29.0603 65.3738C28.6283 66.2098 27.1023 67.4718 26.6963 67.7978C26.8343 68.0598 26.9783 68.3218 27.1163 68.5838C27.7823 69.8478 28.4403 71.1118 29.1163 72.3338C29.3563 72.7638 29.6083 73.1778 29.8603 73.5938C29.7503 73.2958 29.6603 73.0418 29.6603 72.9938C29.3643 71.7678 29.5143 69.2238 30.7203 68.4858C31.5903 67.9558 32.6623 68.3858 33.0843 69.2658C33.5063 70.1458 33.1983 71.3538 32.7663 72.1918C32.3343 73.0298 30.9663 74.1658 30.4743 74.5538C30.7443 74.9718 31.0143 75.3918 31.2963 75.7858C31.4963 76.0498 31.6663 76.3158 31.8803 76.5718L32.4803 77.3318C32.8803 77.7998 33.3043 78.2878 33.7123 78.7318C33.9943 79.0438 34.2683 79.3318 34.5443 79.6338C34.3003 79.2098 33.8383 78.3658 33.8083 78.2918C33.4262 77.2493 33.3174 76.1263 33.4923 75.0298C33.4437 74.9158 33.4068 74.7972 33.3823 74.6758C33.1823 73.7198 33.7723 72.7278 34.7823 72.6198C36.1823 72.4718 37.8543 74.4018 38.3643 75.5558C38.3943 75.6238 38.6383 76.3978 38.7843 76.8898C38.7443 76.5878 38.6983 76.2898 38.6603 75.9838C38.5783 75.3678 38.5143 74.7518 38.4423 74.0878C38.4203 73.7678 38.3963 73.4438 38.3723 73.1158C38.3483 72.7878 38.3523 72.4438 38.3403 72.1058C38.3283 71.3178 38.3543 70.5218 38.3983 69.7178C37.8603 69.7898 35.9423 70.0118 35.0343 69.7418C34.1263 69.4718 33.0543 68.8798 32.7043 67.9418C32.3543 67.0038 32.7963 65.9558 33.7803 65.6978C35.1463 65.3378 37.0863 66.9918 37.7663 68.0558C37.8083 68.1218 38.2103 68.9398 38.4223 69.3938C38.4523 68.9118 38.4803 68.4298 38.5283 67.9418C38.6623 66.5418 38.8423 65.1178 39.0143 63.7018C39.0683 63.2678 39.1163 62.8358 39.1663 62.4038C38.9663 62.4298 36.7003 62.7438 35.6843 62.4418C34.7803 62.1738 33.7043 61.5798 33.3543 60.6418C33.0043 59.7038 33.4443 58.6558 34.4303 58.3978C35.7963 58.0378 37.7343 59.6918 38.4143 60.7558C38.4663 60.8358 39.0423 62.0138 39.1743 62.3198C39.2843 61.3658 39.3743 60.4138 39.4443 59.4718C39.5319 58.2001 39.5366 56.9241 39.4583 55.6518C39.3703 55.6658 36.9983 56.0038 35.9563 55.6958C35.0543 55.4258 33.9783 54.8338 33.6283 53.8958C33.2783 52.9578 33.7183 51.9118 34.7023 51.6518C36.0703 51.2918 38.0083 52.9478 38.6883 54.0098C38.7423 54.0938 39.3603 55.3618 39.4563 55.5978C39.4563 55.5258 39.4563 55.4478 39.4563 55.3738C39.3423 54.1002 39.1154 52.8392 38.7783 51.6058C38.6023 50.9218 38.3943 50.2778 38.1783 49.6578C37.7423 49.7658 35.7483 50.2398 34.7783 50.0578C33.8523 49.8898 32.7163 49.4178 32.2663 48.5278C31.8163 47.6378 32.1383 46.5438 33.0883 46.1798C34.4063 45.6718 36.5163 47.1038 37.3083 48.0858C37.3523 48.1398 37.7303 48.7298 37.9983 49.1658C37.8963 48.8858 37.7983 48.5958 37.6943 48.3298C37.3103 47.3298 36.8943 46.4438 36.5263 45.6578C36.3103 45.2138 36.1063 44.8158 35.9123 44.4458C35.4303 44.3298 33.4923 43.8358 32.7283 43.2458C31.9643 42.6558 31.1923 41.7278 31.2023 40.7298C31.2123 39.7318 32.0023 38.9098 33.0143 39.0238C34.4143 39.1818 35.6303 41.4238 35.8823 42.6598C35.9023 42.7678 36.0503 44.4778 36.0243 44.4718H35.9963C36.1963 44.8238 36.3963 45.2038 36.6083 45.6238C37.0083 46.4018 37.4303 47.2858 37.8383 48.2778C38.2882 49.343 38.6755 50.4335 38.9983 51.5438C39.3671 52.785 39.6241 54.0567 39.7663 55.3438C39.7663 55.3578 39.7663 55.3738 39.7663 55.3898C39.8503 54.9898 40.1183 53.8578 40.1503 53.7738C40.5803 52.5878 42.1083 50.5478 43.5203 50.5978C44.5383 50.6358 45.1963 51.5858 45.0623 52.5518C44.9283 53.5178 44.0043 54.3518 43.1823 54.8158C42.2543 55.3358 39.9583 55.5278 39.7823 55.5418C39.8955 56.8553 39.9202 58.1749 39.8563 59.4918C39.8243 60.2578 39.7683 61.0298 39.7023 61.8038C39.7843 61.4538 39.8603 61.1438 39.8763 61.1018C40.3063 59.9138 41.8343 57.8758 43.2463 57.9258C44.2643 57.9638 44.9223 58.9138 44.7883 59.8798C44.6543 60.8458 43.7323 61.6798 42.9103 62.1438C42.0883 62.6078 40.1103 62.8138 39.6023 62.8598C39.5723 63.1578 39.5483 63.4598 39.5183 63.7498C39.3763 65.1698 39.2263 66.5878 39.1183 67.9838C39.0823 68.4738 39.0643 68.9598 39.0443 69.4458C39.1183 69.1358 39.1823 68.8758 39.1963 68.8458C39.6263 67.6598 41.1563 65.6198 42.5683 65.6718C43.5843 65.7078 44.2423 66.6578 44.1083 67.6258C43.9743 68.5938 43.0523 69.4258 42.2303 69.8878C41.4083 70.3498 39.6303 70.5378 39.0143 70.5958C39.0143 71.0938 39.0143 71.5958 39.0143 72.0758C39.0323 72.4058 39.0283 72.7238 39.0663 73.0538C39.1043 73.3838 39.1283 73.7038 39.1583 74.0258C39.2383 74.6398 39.3163 75.2758 39.4103 75.8758C39.4723 76.2918 39.5403 76.6878 39.6103 77.0878C39.6403 76.5978 39.7203 75.6398 39.7363 75.5598C39.9823 74.3238 41.1843 72.0758 42.5883 71.9118C43.5883 71.7938 44.3883 72.6338 44.4063 73.6098C44.4243 74.5858 43.6363 75.5518 42.8923 76.1318C42.0743 76.7698 39.9223 77.2958 39.6543 77.3598C39.7563 78.0358 39.8723 78.6778 40.0003 79.2818Z" fill="#FFAF33"/>
<path d="M18.1662 57.2999C18.1502 57.3199 17.1662 55.9199 17.1022 55.8259C16.5022 54.7199 15.9662 52.2259 16.9342 51.1979C17.6322 50.4559 18.7802 50.5879 19.4202 51.3259C20.0602 52.0639 20.0822 53.3079 19.8862 54.2299C19.6562 55.3139 18.1662 57.2979 18.1662 57.2999Z" fill="#FFAF33"/>
</g>
<g opacity="0.7">
<path d="M62.3001 10.278C62.9541 10.922 64.9001 11.616 64.9001 11.616C64.9001 11.616 64.9681 10.198 64.9601 10.108C64.8761 9.06399 64.0981 7.09399 62.9601 6.82599C62.7694 6.78663 62.5724 6.78787 62.3822 6.82964C62.1919 6.8714 62.0125 6.95274 61.8558 7.06839C61.699 7.18403 61.5683 7.33137 61.4723 7.50083C61.3762 7.6703 61.3169 7.85809 61.2981 8.05199C61.1841 8.87399 61.7421 9.72799 62.3001 10.278Z" fill="#FFAF33"/>
<path d="M63.4746 36.4C63.4746 36.448 63.4566 36.492 63.4486 36.538L64.0586 37.1C64.0926 36.912 64.1246 36.722 64.1586 36.526C64.2546 35.968 64.3466 35.372 64.4366 34.76C65.0281 34.7507 65.6184 34.7066 66.2046 34.628C66.5326 35.45 67.6986 36.712 67.8506 36.872C67.4706 37.272 67.0966 37.672 66.7386 38.034C66.4926 38.286 66.2546 38.524 66.0226 38.754L66.7506 39.032L67.2406 38.516C67.6286 38.106 68.0406 37.658 68.4406 37.196C68.6306 37.318 70.1866 38.306 71.0406 38.43C71.8146 38.54 72.8406 38.468 73.4226 37.884C73.566 37.7523 73.68 37.5919 73.7574 37.4133C73.8347 37.2347 73.8736 37.0418 73.8715 36.8471C73.8694 36.6525 73.8264 36.4604 73.7453 36.2835C73.6642 36.1065 73.5468 35.9486 73.4006 35.82C72.4946 35.074 70.4566 35.646 69.5746 36.22C69.5226 36.254 68.9986 36.678 68.6706 36.952C68.8386 36.762 69.0026 36.58 69.1726 36.382C69.5126 35.994 69.8386 35.596 70.1926 35.168L70.6866 34.526C70.8566 34.316 71.0086 34.07 71.1726 33.842C71.5406 33.302 71.8866 32.738 72.2246 32.162C72.5646 32.458 73.7906 33.49 74.5446 33.72C75.2986 33.95 76.3106 34.03 76.9806 33.542C77.141 33.4318 77.2765 33.2894 77.3787 33.1239C77.4809 32.9583 77.5475 32.7733 77.5743 32.5806C77.601 32.3879 77.5872 32.1918 77.5339 32.0047C77.4806 31.8176 77.3889 31.6437 77.2646 31.494C76.4826 30.62 74.3806 30.878 73.4226 31.294C73.3626 31.322 72.7106 31.704 72.3546 31.92C72.5546 31.572 72.7546 31.226 72.9546 30.868C73.5066 29.832 74.0306 28.768 74.5546 27.706C74.7173 27.382 74.8806 27.0593 75.0446 26.738C75.1646 26.844 76.5966 28.104 77.4446 28.36C78.1926 28.588 79.2106 28.67 79.8806 28.184C80.041 28.0738 80.1765 27.9314 80.2787 27.7659C80.3809 27.6003 80.4475 27.4153 80.4743 27.2226C80.501 27.0299 80.4872 26.8338 80.4339 26.6467C80.3806 26.4596 80.2889 26.2857 80.1646 26.136C79.3826 25.26 77.2826 25.518 76.3246 25.936C76.2526 25.968 75.3126 26.52 75.0806 26.67C75.4426 25.96 75.8086 25.256 76.1986 24.576C76.7207 23.6547 77.3019 22.7681 77.9386 21.922C77.9946 21.972 79.4826 23.294 80.3386 23.556C81.0866 23.784 82.1046 23.866 82.7746 23.38C82.9365 23.271 83.0735 23.1291 83.1768 22.9636C83.2801 22.7981 83.3473 22.6127 83.3741 22.4194C83.4009 22.2262 83.3866 22.0295 83.3323 21.8421C83.2779 21.6547 83.1847 21.4809 83.0586 21.332C82.2766 20.456 80.1766 20.714 79.2186 21.132C79.1426 21.164 78.1326 21.758 77.9566 21.88C77.9946 21.83 78.0286 21.776 78.0666 21.728C78.729 20.8965 79.4653 20.1267 80.2666 19.428C80.7026 19.028 81.1406 18.684 81.5766 18.352C81.8266 18.626 82.9926 19.868 83.7426 20.19C84.4626 20.5 85.4646 20.692 86.1846 20.282C86.3554 20.1899 86.5051 20.0634 86.6243 19.9104C86.7435 19.7574 86.8297 19.5813 86.8772 19.3932C86.9248 19.2052 86.9328 19.0093 86.9007 18.818C86.8685 18.6267 86.797 18.4442 86.6906 18.282C86.0086 17.326 83.8906 17.352 82.8906 17.67C82.8366 17.686 82.3026 17.924 81.9166 18.102C82.1166 17.954 82.3166 17.8 82.5166 17.662C83.2386 17.148 83.9326 16.72 84.5506 16.348C84.9026 16.148 85.2266 15.948 85.5306 15.788C85.9186 15.928 87.4866 16.474 88.2866 16.416C89.0866 16.358 90.0466 16.068 90.4966 15.372C90.6063 15.2114 90.6813 15.0297 90.7169 14.8385C90.7524 14.6473 90.7477 14.4508 90.7032 14.2615C90.6586 14.0722 90.575 13.8943 90.4579 13.7391C90.3407 13.5839 90.1925 13.4548 90.0226 13.36C88.9766 12.826 87.1106 13.824 86.3706 14.56C86.3066 14.624 85.4206 15.742 85.4406 15.76H85.4646C85.1686 15.914 84.8526 16.084 84.5126 16.278C83.8846 16.638 83.1806 17.052 82.4446 17.552C81.6444 18.0836 80.8758 18.6612 80.1426 19.282C79.3197 19.9744 78.5594 20.738 77.8706 21.564L77.8466 21.596C77.9766 21.276 78.3046 20.372 78.3226 20.3C78.5686 19.282 78.4446 17.168 77.4426 16.556C77.273 16.4606 77.0854 16.4016 76.8917 16.3828C76.698 16.364 76.5025 16.3858 76.3177 16.4468C76.1329 16.5077 75.9628 16.6066 75.8184 16.7369C75.6739 16.8673 75.5582 17.0264 75.4786 17.204C75.1206 17.952 75.3846 18.938 75.7446 19.632C76.1446 20.418 77.6526 21.602 77.7726 21.696C77.0934 22.5549 76.4714 23.4575 75.9106 24.398C75.5826 24.944 75.2686 25.506 74.9606 26.072C75.0626 25.792 75.1606 25.542 75.1606 25.504C75.4066 24.486 75.2806 22.374 74.2806 21.762C74.1111 21.6665 73.9236 21.6075 73.73 21.5885C73.5364 21.5696 73.341 21.5912 73.1562 21.6519C72.9714 21.7127 72.8013 21.8113 72.6568 21.9415C72.5122 22.0717 72.3964 22.2306 72.3166 22.408C71.9586 23.156 72.2226 24.142 72.5806 24.838C72.9386 25.534 74.2066 26.58 74.5446 26.85C74.4286 27.068 74.3106 27.284 74.1946 27.504C73.6426 28.552 73.0966 29.602 72.5286 30.616C72.3286 30.974 72.1186 31.318 71.9106 31.664C72.0006 31.416 72.0746 31.206 72.0826 31.172C72.3286 30.154 72.2046 28.04 71.2026 27.428C71.033 27.3326 70.8454 27.2736 70.6517 27.2548C70.458 27.236 70.2625 27.2578 70.0777 27.3188C69.8929 27.3797 69.7228 27.4786 69.5784 27.6089C69.4339 27.7393 69.3182 27.8984 69.2386 28.076C68.8806 28.824 69.1446 29.81 69.5046 30.504C69.8646 31.198 71.0066 32.146 71.4066 32.468C71.1826 32.816 70.9566 33.164 70.7246 33.49C70.5606 33.708 70.4166 33.932 70.2386 34.142L69.7186 34.8C69.3806 35.2 69.0346 35.6 68.6966 35.966C68.4626 36.226 68.2346 36.47 68.0066 36.716C68.2066 36.362 68.5926 35.662 68.6186 35.6C68.9346 34.7343 69.0248 33.8023 68.8806 32.892C68.9197 32.797 68.9498 32.6986 68.9706 32.598C69.017 32.4077 69.0228 32.2097 68.9878 32.0169C68.9528 31.8242 68.8778 31.6409 68.7675 31.479C68.6572 31.317 68.5142 31.1801 68.3476 31.0769C68.1811 30.9737 67.9947 30.9066 67.8006 30.88C66.6326 30.758 65.2506 32.36 64.8266 33.318C64.8006 33.374 64.5986 34.018 64.4766 34.426C64.5106 34.176 64.5486 33.932 64.5806 33.674C64.6486 33.162 64.7026 32.652 64.7606 32.1C64.7806 31.834 64.7986 31.564 64.8186 31.3C64.8386 31.036 64.8366 30.742 64.8466 30.46C64.8566 29.808 64.8346 29.146 64.7966 28.48C65.2446 28.538 66.8366 28.724 67.5966 28.498C68.3566 28.272 69.2406 27.782 69.5326 27.008C69.6057 26.8275 69.6404 26.6338 69.6343 26.4391C69.6283 26.2445 69.5817 26.0533 69.4976 25.8777C69.4134 25.702 69.2936 25.5459 69.1457 25.4192C68.9978 25.2926 68.8251 25.1982 68.6386 25.142C67.5046 24.844 65.8946 26.218 65.3286 27.102C65.2946 27.156 64.9606 27.836 64.7846 28.212C64.7586 27.812 64.7346 27.412 64.6966 27.012C64.5846 25.844 64.4366 24.666 64.2966 23.49C64.2526 23.13 64.2126 22.77 64.1726 22.412C64.3306 22.434 66.2186 22.694 67.0646 22.444C67.8146 22.22 68.7086 21.728 68.9986 20.952C69.0733 20.7718 69.1092 20.5779 69.1039 20.3829C69.0986 20.1879 69.0523 19.9962 68.9679 19.8204C68.8835 19.6445 68.7631 19.4884 68.6143 19.3622C68.4656 19.236 68.2919 19.1426 68.1046 19.088C66.9706 18.79 65.3606 20.164 64.7966 21.046C64.7526 21.112 64.2746 22.09 64.1646 22.346C64.0746 21.546 63.9926 20.764 63.9426 19.98C63.8667 18.9216 63.86 17.8593 63.9226 16.8C63.9966 16.812 65.9666 17.092 66.8306 16.836C67.5806 16.612 68.4746 16.12 68.7646 15.344C68.8397 15.164 68.8759 14.9701 68.8709 14.7752C68.8658 14.5802 68.8197 14.3884 68.7355 14.2125C68.6513 14.0366 68.531 13.8804 68.3823 13.7542C68.2336 13.6279 68.0599 13.5345 67.8726 13.48C66.7386 13.18 65.1286 14.556 64.5626 15.438C64.5186 15.508 64.0046 16.56 63.9246 16.758C63.9246 16.696 63.9246 16.632 63.9246 16.572C64.0184 15.514 64.2065 14.4665 64.4866 13.442C64.6326 12.874 64.8066 12.34 64.9846 11.822C65.3466 11.912 67.0026 12.306 67.8066 12.16C68.5766 12.022 69.5206 11.63 69.8926 10.89C69.9869 10.7193 70.044 10.5307 70.0604 10.3364C70.0768 10.1421 70.0519 9.94658 69.9876 9.76254C69.9232 9.57851 69.8207 9.41012 69.6869 9.26839C69.553 9.12665 69.3907 9.01475 69.2106 8.94001C68.1146 8.51801 66.3646 9.70801 65.7066 10.522C65.6706 10.568 65.3566 11.058 65.1326 11.42C65.2166 11.188 65.3006 10.946 65.3866 10.726C65.7046 9.89801 66.0466 9.16001 66.3566 8.50801C66.5346 8.13801 66.7046 7.80801 66.8646 7.50801C67.2646 7.41201 68.8766 7.00201 69.5106 6.50801C70.1446 6.01401 70.7866 5.24801 70.7766 4.42001C70.7817 4.22542 70.7459 4.03194 70.6713 3.85212C70.5968 3.67231 70.4853 3.51018 70.344 3.37627C70.2027 3.24235 70.0349 3.13965 69.8513 3.07483C69.6678 3.01001 69.4727 2.98452 69.2786 3.00001C68.1126 3.13001 67.1066 5.00001 66.8966 6.02001C66.8786 6.10801 66.7586 7.52801 66.7786 7.52401H66.8026C66.6406 7.81601 66.4726 8.12401 66.2946 8.48201C65.9706 9.12801 65.6106 9.86201 65.2726 10.682C64.8987 11.5665 64.5769 12.472 64.3086 13.394C64.0032 14.4251 63.7897 15.4812 63.6706 16.55C63.6716 16.5633 63.6716 16.5767 63.6706 16.59C63.6026 16.252 63.3786 15.316 63.3526 15.246C62.9966 14.262 61.7266 12.568 60.5526 12.61C60.3579 12.6223 60.168 12.6755 59.9952 12.7661C59.8224 12.8568 59.6706 12.9828 59.5498 13.1361C59.4291 13.2893 59.342 13.4663 59.2942 13.6555C59.2464 13.8447 59.2391 14.0418 59.2726 14.234C59.3846 15.054 60.1486 15.73 60.8326 16.112C61.6026 16.544 63.5106 16.712 63.6626 16.712C63.5685 17.8027 63.5478 18.8985 63.6006 19.992C63.6286 20.628 63.6746 21.27 63.7306 21.912C63.6606 21.622 63.5966 21.364 63.5846 21.328C63.2266 20.344 61.9586 18.65 60.7846 18.692C60.5908 18.7061 60.402 18.7605 60.2303 18.8515C60.0586 18.9426 59.9077 19.0685 59.7873 19.221C59.6669 19.3736 59.5796 19.5496 59.5309 19.7378C59.4823 19.9259 59.4733 20.1222 59.5046 20.314C59.6186 21.136 60.3826 21.812 61.0646 22.194C61.7466 22.576 63.3826 22.75 63.8126 22.794C63.8366 23.04 63.8566 23.286 63.8826 23.532C64.0006 24.712 64.1246 25.89 64.2086 27.048C64.2406 27.448 64.2546 27.86 64.2706 28.262C64.2086 28.006 64.1546 27.79 64.1446 27.758C63.7866 26.772 62.5166 25.078 61.3446 25.12C61.1506 25.1341 60.9616 25.1885 60.7897 25.2797C60.6179 25.3709 60.4669 25.4969 60.3465 25.6497C60.226 25.8025 60.1388 25.9787 60.0902 26.1672C60.0417 26.3556 60.033 26.552 60.0646 26.744C60.1786 27.564 60.9426 28.242 61.6246 28.624C62.3066 29.006 63.7846 29.162 64.2946 29.212C64.2946 29.624 64.2946 30.038 64.2946 30.44C64.2786 30.714 64.2826 30.978 64.2506 31.252C64.2186 31.526 64.2006 31.792 64.1766 32.052C64.1086 32.564 64.0426 33.092 63.9646 33.59C63.9146 33.936 63.8586 34.264 63.8046 34.59C63.7786 34.19 63.7126 33.39 63.6986 33.322C63.4986 32.294 62.4986 30.428 61.3306 30.292C61.1365 30.2748 60.9409 30.2987 60.7567 30.3622C60.5724 30.4256 60.4035 30.5271 60.2611 30.6601C60.1186 30.7931 60.0058 30.9547 59.9299 31.1342C59.854 31.3137 59.8168 31.5072 59.8206 31.702C59.8066 32.53 60.4606 33.316 61.0766 33.796C61.7566 34.326 63.5446 34.764 63.7666 34.816C63.6686 35.368 63.5726 35.902 63.4746 36.4Z" fill="#FFAF33"/>
<path d="M81.6006 18.148C81.6146 18.164 82.4406 17.002 82.4846 16.924C82.9906 16.006 83.4286 13.924 82.6246 13.08C82.4871 12.9417 82.3221 12.8339 82.1402 12.7636C81.9583 12.6934 81.7636 12.6622 81.5689 12.6722C81.3742 12.6822 81.1838 12.7332 81.01 12.8217C80.8363 12.9102 80.6831 13.0343 80.5606 13.186C80.0166 13.812 80.0106 14.832 80.1726 15.598C80.3626 16.498 81.6006 18.146 81.6006 18.148Z" fill="#FFAF33"/>
</g>
<path d="M34.5037 20.0913L13.1328 18.6719L11.7384 39.6656L33.1093 41.0851L34.5037 20.0913Z" fill="white"/>
<path d="M33.1088 41.1843L11.7368 39.7643C11.7236 39.7635 11.7108 39.7601 11.6989 39.7544C11.6871 39.7487 11.6765 39.7406 11.6678 39.7308C11.659 39.7209 11.6523 39.7095 11.648 39.697C11.6437 39.6846 11.642 39.6714 11.6428 39.6583L13.0428 18.6583C13.0434 18.6452 13.0467 18.6324 13.0526 18.6207C13.0584 18.609 13.0667 18.5986 13.0768 18.5903C13.0865 18.5816 13.0979 18.575 13.1103 18.5708C13.1227 18.5667 13.1358 18.5652 13.1488 18.5663L34.5108 20.0003C34.5238 20.001 34.5366 20.0044 34.5483 20.0101C34.5601 20.0159 34.5705 20.024 34.5791 20.0339C34.5877 20.0437 34.5942 20.0552 34.5983 20.0677C34.6023 20.0801 34.6039 20.0932 34.6028 20.1063L33.2028 41.1063C33.2011 41.1332 33.1889 41.1583 33.1688 41.1763C33.1501 41.1851 33.1291 41.1879 33.1088 41.1843ZM11.8428 39.5703L33.0148 40.9703L34.3968 20.1703L13.2248 18.7703L11.8428 39.5703Z" fill="#263238"/>
<path d="M15.7074 24.8732L15.6934 25.0728L30.2612 26.0991L30.2753 25.8996L15.7074 24.8732Z" fill="#263238"/>
<path d="M15.5745 27.2604L15.5605 27.4604L30.9325 28.5365L30.9465 28.3365L15.5745 27.2604Z" fill="#263238"/>
<path d="M15.3905 30.3895L15.3691 30.5884L30.3214 32.1916L30.3428 31.9927L15.3905 30.3895Z" fill="#263238"/>
<path d="M26.546 33.5361H15.252V33.7361H26.546V33.5361Z" fill="#263238"/>
<path d="M41.972 37.2333L20.7051 39.7729L23.1999 60.6645L44.4668 58.1248L41.972 37.2333Z" fill="white"/>
<path d="M23.2002 60.7602C23.1756 60.7604 23.1519 60.7515 23.1334 60.7353C23.115 60.719 23.1032 60.6966 23.1002 60.6722L20.6002 39.7822C20.5974 39.7559 20.6045 39.7295 20.6202 39.7082C20.6378 39.6881 20.6618 39.6746 20.6882 39.6702L41.9562 37.1302C41.9692 37.1285 41.9825 37.1295 41.9951 37.133C42.0078 37.1366 42.0196 37.1427 42.0299 37.1509C42.0401 37.1591 42.0486 37.1693 42.0549 37.1808C42.0611 37.1924 42.065 37.2051 42.0662 37.2182L44.5622 58.1082C44.5639 58.1212 44.563 58.1345 44.5596 58.1472C44.5561 58.1599 44.5502 58.1718 44.5422 58.1822C44.525 58.2024 44.5006 58.2153 44.4742 58.2182L23.2142 60.7602H23.2002ZM20.8162 39.8582L23.2882 60.5502L44.3582 58.0322L41.8862 37.3402L20.8162 39.8582Z" fill="#263238"/>
<path d="M41.4894 42.0062L26.2168 43.8706L26.241 44.0691L41.5137 42.2047L41.4894 42.0062Z" fill="#263238"/>
<path d="M41.5502 44.4518L26.082 46.8823L26.1131 47.0799L41.5813 44.6493L41.5502 44.4518Z" fill="#263238"/>
<path d="M41.163 47.3339L26.7871 50.1543L26.8256 50.3506L41.2015 47.5301L41.163 47.3339Z" fill="#263238"/>
<path d="M41.9378 51.1264L26.9844 52.981L27.009 53.1794L41.9624 51.3248L41.9378 51.1264Z" fill="#263238"/>
<path d="M17.9663 21.6923C17.9359 21.6925 17.9059 21.6857 17.8785 21.6726C17.8511 21.6594 17.8271 21.6402 17.8083 21.6163L17.3263 21.0003C17.2934 20.9587 17.2784 20.9057 17.2846 20.853C17.2908 20.8003 17.3176 20.7522 17.3593 20.7193C17.4009 20.6864 17.4539 20.6714 17.5066 20.6776C17.5593 20.6838 17.6074 20.7107 17.6403 20.7523L18.1223 21.3663C18.1388 21.3869 18.151 21.4106 18.1584 21.4359C18.1657 21.4612 18.1679 21.4878 18.165 21.514C18.162 21.5402 18.1538 21.5656 18.141 21.5886C18.1282 21.6117 18.111 21.632 18.0903 21.6483C18.0551 21.6766 18.0114 21.6921 17.9663 21.6923Z" fill="#263238"/>
<path d="M17.8488 20.9877C18.4908 20.3457 18.4908 19.3047 17.8488 18.6627C17.2068 18.0207 16.1658 18.0207 15.5238 18.6627C14.8818 19.3047 14.8818 20.3457 15.5238 20.9877C16.1658 21.6297 17.2068 21.6297 17.8488 20.9877Z" fill="#FBAD33"/>
<path d="M16.6874 21.5681C16.3424 21.5681 16.0052 21.4658 15.7184 21.2742C15.4316 21.0825 15.2081 20.8102 15.0761 20.4915C14.9441 20.1728 14.9096 19.8221 14.9769 19.4838C15.0442 19.1455 15.2103 18.8348 15.4542 18.5909C15.6981 18.347 16.0088 18.1809 16.3471 18.1136C16.6854 18.0463 17.0361 18.0808 17.3548 18.2128C17.6734 18.3448 17.9458 18.5684 18.1374 18.8552C18.3291 19.142 18.4314 19.4791 18.4314 19.8241C18.4303 20.2863 18.2462 20.7293 17.9194 21.0561C17.5926 21.3829 17.1496 21.567 16.6874 21.5681ZM16.6874 18.2801C16.382 18.2801 16.0835 18.3706 15.8296 18.5403C15.5756 18.7099 15.3778 18.9511 15.2609 19.2332C15.144 19.5153 15.1135 19.8258 15.173 20.1253C15.2326 20.4248 15.3797 20.6999 15.5956 20.9159C15.8115 21.1318 16.0866 21.2788 16.3861 21.3384C16.6856 21.398 16.9961 21.3674 17.2782 21.2505C17.5604 21.1337 17.8015 20.9358 17.9711 20.6819C18.1408 20.428 18.2314 20.1295 18.2314 19.8241C18.2308 19.4147 18.068 19.0223 17.7785 18.7329C17.4891 18.4434 17.0967 18.2806 16.6874 18.2801Z" fill="#263238"/>
<path d="M17.4012 19.3881C17.4012 19.5895 17.3415 19.7864 17.2295 19.9539C17.1176 20.1213 16.9585 20.2518 16.7723 20.3288C16.5862 20.4058 16.3814 20.4259 16.1839 20.3864C15.9864 20.347 15.805 20.2498 15.6627 20.1072C15.5204 19.9647 15.4236 19.7831 15.3846 19.5855C15.3455 19.3879 15.3659 19.1831 15.4433 18.9972C15.5207 18.8112 15.6514 18.6523 15.8191 18.5407C15.9868 18.4291 16.1838 18.3697 16.3852 18.3701C16.5188 18.3701 16.6511 18.3965 16.7745 18.4476C16.8979 18.4988 17.01 18.5738 17.1044 18.6684C17.1987 18.763 17.2735 18.8752 17.3245 18.9987C17.3754 19.1222 17.4015 19.2545 17.4012 19.3881Z" fill="#FBAD33"/>
<path d="M16.3895 20.5041C16.1682 20.5045 15.9518 20.4392 15.7677 20.3165C15.5835 20.1938 15.4399 20.0192 15.355 19.8148C15.2702 19.6105 15.2478 19.3855 15.2909 19.1684C15.334 18.9514 15.4405 18.752 15.597 18.5955C15.7535 18.439 15.9529 18.3325 16.1699 18.2895C16.387 18.2464 16.6119 18.2687 16.8163 18.3536C17.0207 18.4384 17.1953 18.582 17.3179 18.7662C17.4406 18.9503 17.5059 19.1668 17.5055 19.3881C17.505 19.6839 17.3873 19.9674 17.1781 20.1766C16.9689 20.3858 16.6854 20.5035 16.3895 20.5041ZM16.3895 18.4701C16.2079 18.4697 16.0302 18.5232 15.879 18.6238C15.7277 18.7244 15.6098 18.8677 15.54 19.0354C15.4702 19.2031 15.4517 19.3877 15.4869 19.5659C15.5221 19.7441 15.6094 19.9079 15.7377 20.0365C15.866 20.1651 16.0296 20.2527 16.2077 20.2883C16.3858 20.3239 16.5705 20.3058 16.7384 20.2364C16.9062 20.167 17.0497 20.0493 17.1507 19.8983C17.2516 19.7473 17.3055 19.5697 17.3055 19.3881C17.305 19.1451 17.2084 18.9122 17.0368 18.7402C16.8652 18.5682 16.6325 18.4711 16.3895 18.4701Z" fill="#263238"/>
<path d="M17.2875 18.6862C17.2879 18.9683 17.2046 19.2442 17.0482 19.479C16.8917 19.7138 16.6692 19.8968 16.4086 20.0051C16.1481 20.1133 15.8613 20.1418 15.5846 20.0871C15.3078 20.0323 15.0536 19.8966 14.8539 19.6972C14.6543 19.4979 14.5183 19.2438 14.4631 18.9671C14.4079 18.6905 14.436 18.4036 14.5439 18.143C14.6518 17.8823 14.8345 17.6595 15.0691 17.5027C15.3036 17.3459 15.5794 17.2622 15.8615 17.2622C16.2394 17.2622 16.6018 17.4122 16.8692 17.6792C17.1365 17.9462 17.287 18.3084 17.2875 18.6862Z" fill="#FBAD33"/>
<path d="M15.8599 20.2101C15.5586 20.2097 15.2641 20.12 15.0137 19.9523C14.7634 19.7846 14.5684 19.5464 14.4533 19.2679C14.3383 18.9894 14.3084 18.6831 14.3674 18.3876C14.4264 18.0921 14.5718 17.8207 14.785 17.6078C14.9982 17.3948 15.2697 17.2499 15.5653 17.1912C15.8609 17.1326 16.1672 17.1629 16.4456 17.2783C16.7239 17.3937 16.9618 17.5891 17.1292 17.8396C17.2966 18.0902 17.3859 18.3848 17.3859 18.6861C17.3854 19.0905 17.2244 19.4781 16.9382 19.7639C16.6521 20.0496 16.2643 20.2101 15.8599 20.2101ZM15.8599 17.3621C15.5981 17.3625 15.3423 17.4405 15.1249 17.5862C14.9074 17.7319 14.738 17.9389 14.6381 18.1808C14.5382 18.4228 14.5123 18.6889 14.5636 18.9456C14.6149 19.2023 14.7411 19.4381 14.9264 19.623C15.1116 19.808 15.3476 19.9339 15.6043 19.9848C15.8611 20.0357 16.1272 20.0094 16.369 19.9091C16.6108 19.8089 16.8175 19.6392 16.9629 19.4215C17.1083 19.2038 17.1859 18.9479 17.1859 18.6861C17.1854 18.3348 17.0454 17.998 16.7968 17.7498C16.5482 17.5015 16.2112 17.3621 15.8599 17.3621Z" fill="#263238"/>
<path d="M37.9891 39.5321C37.9587 39.5322 37.9287 39.5255 37.9013 39.5123C37.8739 39.4991 37.8499 39.4799 37.8311 39.4561L37.3491 38.8421C37.3305 38.8217 37.3164 38.7978 37.3075 38.7717C37.2987 38.7457 37.2953 38.7181 37.2976 38.6906C37.2999 38.6632 37.3078 38.6366 37.3209 38.6123C37.3339 38.5881 37.3519 38.5669 37.3735 38.5499C37.3952 38.5329 37.4201 38.5206 37.4468 38.5137C37.4734 38.5068 37.5012 38.5055 37.5284 38.5098C37.5555 38.5142 37.5815 38.524 37.6047 38.5389C37.6279 38.5537 37.6478 38.5732 37.6631 38.5961L38.1471 39.2101C38.1795 39.2517 38.1942 39.3046 38.1878 39.3571C38.1815 39.4095 38.1546 39.4573 38.1131 39.4901C38.0776 39.5176 38.0339 39.5324 37.9891 39.5321Z" fill="#263238"/>
<path d="M38.3089 38.0422C38.5183 37.1587 37.9718 36.2728 37.0883 36.0634C36.2048 35.8541 35.3188 36.4006 35.1095 37.2841C34.9002 38.1676 35.4467 39.0535 36.3302 39.2628C37.2137 39.4722 38.0996 38.9257 38.3089 38.0422Z" fill="#FBAD33"/>
<path d="M36.7108 39.4001C36.3658 39.4005 36.0285 39.2986 35.7414 39.1072C35.4543 38.9158 35.2305 38.6435 35.0982 38.3249C34.9659 38.0063 34.931 37.6555 34.9981 37.3171C35.0652 36.9787 35.2311 36.6677 35.4749 36.4236C35.7188 36.1795 36.0295 36.0132 36.3679 35.9458C36.7062 35.8783 37.057 35.9127 37.3758 36.0447C37.6946 36.1766 37.9671 36.4001 38.1588 36.687C38.3505 36.9738 38.4528 37.3111 38.4528 37.6561C38.4523 38.1181 38.2687 38.5611 37.9422 38.888C37.6156 39.2149 37.1729 39.3991 36.7108 39.4001ZM36.7108 36.1121C36.4054 36.1117 36.1067 36.2019 35.8525 36.3713C35.5983 36.5408 35.4001 36.7818 35.2829 37.0639C35.1658 37.346 35.1349 37.6565 35.1943 37.9561C35.2536 38.2557 35.4005 38.531 35.6164 38.7472C35.8322 38.9633 36.1073 39.1106 36.4069 39.1703C36.7065 39.23 37.017 39.1996 37.2992 39.0828C37.5815 38.966 37.8228 38.7681 37.9925 38.5141C38.1622 38.2602 38.2528 37.9616 38.2528 37.6561C38.2507 37.2483 38.0874 36.858 37.7985 36.5702C37.5096 36.2824 37.1186 36.1206 36.7108 36.1201V36.1121Z" fill="#263238"/>
<path d="M37.4266 37.228C37.4266 37.4294 37.3669 37.6263 37.2549 37.7937C37.143 37.9612 36.9839 38.0917 36.7977 38.1687C36.6116 38.2457 36.4068 38.2657 36.2093 38.2263C36.0118 38.1868 35.8304 38.0897 35.6881 37.9471C35.5458 37.8045 35.449 37.6229 35.4099 37.4253C35.3709 37.2277 35.3913 37.023 35.4687 36.837C35.546 36.651 35.6768 36.4922 35.8445 36.3806C36.0122 36.2689 36.2092 36.2096 36.4106 36.21C36.5443 36.2097 36.6767 36.2359 36.8002 36.287C36.9237 36.338 37.0359 36.413 37.1303 36.5077C37.2248 36.6023 37.2996 36.7146 37.3504 36.8382C37.4012 36.9618 37.4272 37.0943 37.4266 37.228Z" fill="#FBAD33"/>
<path d="M36.411 38.3463C36.1898 38.3467 35.9735 38.2815 35.7893 38.1589C35.6052 38.0363 35.4616 37.8618 35.3767 37.6576C35.2918 37.4533 35.2693 37.2285 35.3123 37.0115C35.3552 36.7945 35.4615 36.5951 35.6178 36.4385C35.774 36.282 35.9732 36.1753 36.1902 36.132C36.4071 36.0887 36.632 36.1107 36.8364 36.1953C37.0408 36.2798 37.2155 36.4231 37.3385 36.607C37.4614 36.7909 37.527 37.0071 37.527 37.2283C37.5265 37.5244 37.4088 37.8081 37.1997 38.0176C36.9906 38.2271 36.707 38.3453 36.411 38.3463ZM36.411 36.3104C36.2294 36.31 36.0517 36.3635 35.9005 36.4641C35.7492 36.5647 35.6313 36.708 35.5615 36.8757C35.4917 37.0434 35.4732 37.228 35.5084 37.4062C35.5436 37.5844 35.6309 37.7482 35.7592 37.8768C35.8875 38.0053 36.0511 38.093 36.2292 38.1286C36.4073 38.1641 36.592 38.1461 36.7599 38.0767C36.9277 38.0072 37.0712 37.8896 37.1722 37.7386C37.2731 37.5876 37.327 37.41 37.327 37.2283C37.3265 36.9854 37.2299 36.7525 37.0583 36.5805C36.8867 36.4085 36.654 36.3114 36.411 36.3104Z" fill="#263238"/>
<path d="M37.309 36.5261C37.3094 36.8083 37.2261 37.0842 37.0695 37.319C36.913 37.5539 36.6903 37.7369 36.4297 37.8451C36.169 37.9533 35.8821 37.9817 35.6053 37.9267C35.3285 37.8718 35.0742 37.7359 34.8747 37.5364C34.6751 37.3368 34.5393 37.0826 34.4843 36.8058C34.4294 36.529 34.4578 36.2421 34.566 35.9814C34.6741 35.7208 34.8572 35.4981 35.092 35.3415C35.3268 35.185 35.6028 35.1017 35.885 35.1021C36.2627 35.1021 36.6249 35.2521 36.892 35.5191C37.159 35.7862 37.309 36.1484 37.309 36.5261Z" fill="#FBAD33"/>
<path d="M35.8853 38.05C35.5839 38.05 35.2893 37.9606 35.0386 37.7931C34.788 37.6257 34.5927 37.3876 34.4773 37.1092C34.362 36.8307 34.3318 36.5243 34.3906 36.2286C34.4494 35.933 34.5946 35.6615 34.8077 35.4483C35.0208 35.2352 35.2924 35.09 35.588 35.0312C35.8836 34.9724 36.1901 35.0026 36.4685 35.118C36.747 35.2333 36.985 35.4286 37.1525 35.6793C37.3199 35.9299 37.4093 36.2245 37.4093 36.526C37.4093 36.9301 37.2488 37.3178 36.963 37.6036C36.6772 37.8894 36.2895 38.05 35.8853 38.05ZM35.8853 35.202C35.6235 35.202 35.3675 35.2796 35.1498 35.4251C34.932 35.5706 34.7623 35.7774 34.6621 36.0193C34.5619 36.2612 34.5357 36.5274 34.5868 36.7843C34.6379 37.0411 34.764 37.277 34.9491 37.4622C35.1343 37.6473 35.3702 37.7734 35.627 37.8245C35.8839 37.8756 36.1501 37.8494 36.392 37.7492C36.6339 37.649 36.8407 37.4793 36.9862 37.2615C37.1317 37.0438 37.2093 36.7878 37.2093 36.526C37.2093 36.1746 37.0699 35.8377 36.8217 35.589C36.5734 35.3404 36.2367 35.2005 35.8853 35.2V35.202Z" fill="#263238"/>
<path d="M48.0383 20.6641L47.7203 24.6181C47.6725 25.2134 47.4001 25.7682 46.9583 26.1701L46.0963 26.9521C45.5634 27.4351 45.2368 28.1047 45.1843 28.8221L44.4503 38.9361C44.4168 39.3917 44.4954 39.8487 44.6791 40.267C44.8628 40.6854 45.1461 41.0524 45.5043 41.3361C45.8048 41.5736 46.0426 41.8813 46.1967 42.232C46.3508 42.5828 46.4166 42.966 46.3883 43.3481L42.8223 92.4001L89.2003 95.7781L94.4003 24.0341L48.0383 20.6641Z" fill="#041A34"/>
<path d="M89.199 95.8778L42.813 92.5058C42.7868 92.5037 42.7625 92.4915 42.745 92.4718C42.7364 92.4621 42.7298 92.4507 42.7256 92.4383C42.7215 92.4259 42.7199 92.4128 42.721 92.3998L46.289 43.3418C46.3154 42.9757 46.2519 42.6087 46.1041 42.2727C45.9563 41.9367 45.7287 41.6418 45.441 41.4138C45.07 41.1204 44.7765 40.7406 44.5861 40.3076C44.3958 39.8746 44.3144 39.4016 44.349 38.9298L45.083 28.8158C45.1368 28.0725 45.4749 27.3784 46.027 26.8778L46.889 26.0958C47.3126 25.7114 47.5736 25.18 47.619 24.6098L47.937 20.6558C47.9381 20.6427 47.9417 20.6299 47.9476 20.6181C47.9536 20.6064 47.9619 20.5959 47.9719 20.5874C47.9819 20.5788 47.9936 20.5723 48.0061 20.5683C48.0187 20.5642 48.0319 20.5627 48.045 20.5638L94.4131 23.9358C94.4394 23.9379 94.4639 23.9501 94.4815 23.9698C94.499 23.9896 94.5082 24.0154 94.507 24.0418L89.2891 95.7858C89.2873 95.8093 89.2773 95.8314 89.2608 95.8482C89.2444 95.8651 89.2225 95.8755 89.199 95.8778ZM42.927 92.3138L89.097 95.6718L94.297 24.1278L48.129 20.7698L47.819 24.6258C47.7696 25.2478 47.4832 25.8269 47.019 26.2438L46.157 27.0258C45.6434 27.4903 45.3289 28.1351 45.279 28.8258L44.545 38.9398C44.5123 39.3792 44.5877 39.8199 44.7649 40.2233C44.942 40.6268 45.2154 40.9806 45.561 41.2538C45.8744 41.5016 46.1222 41.8224 46.2829 42.1882C46.4437 42.5539 46.5124 42.9534 46.483 43.3518L42.927 92.3138Z" fill="#263238"/>
<path d="M57.8628 22.1211L41.9473 22.2378L42.4398 89.434L58.3554 89.3173L57.8628 22.1211Z" fill="white"/>
<path d="M42.4337 89.536C42.4072 89.536 42.3817 89.5255 42.363 89.5067C42.3442 89.488 42.3337 89.4625 42.3337 89.436L41.8457 22.236C41.8462 22.2097 41.8569 22.1845 41.8756 22.1659C41.8942 22.1472 41.9193 22.1365 41.9457 22.136L57.8617 22.02C57.8874 22.023 57.9118 22.0335 57.9317 22.05C57.9504 22.0686 57.9611 22.0937 57.9617 22.12L58.4497 89.32C58.4492 89.3464 58.4385 89.3715 58.4198 89.3902C58.4012 89.4088 58.3761 89.4195 58.3497 89.42L42.4357 89.536H42.4337ZM42.0477 22.336L42.5337 89.336L58.2477 89.222L57.7617 22.222L42.0477 22.336Z" fill="#263238"/>
<path d="M61.2046 23.0069L45.2891 23.1235L45.7816 90.3197L61.6972 90.2031L61.2046 23.0069Z" fill="white"/>
<path d="M45.7755 90.4217C45.7625 90.422 45.7495 90.4196 45.7374 90.4148C45.7253 90.41 45.7142 90.4029 45.7049 90.3937C45.6956 90.3846 45.6882 90.3737 45.6831 90.3617C45.6781 90.3497 45.6755 90.3368 45.6755 90.3237L45.1875 23.1237C45.1873 23.0976 45.1974 23.0725 45.2155 23.0537C45.2248 23.0441 45.236 23.0364 45.2484 23.0312C45.2608 23.0261 45.2741 23.0235 45.2875 23.0237L61.2015 22.9077C61.228 22.9077 61.2535 22.9183 61.2722 22.937C61.291 22.9558 61.3015 22.9812 61.3015 23.0077L61.7995 90.1997C61.7998 90.2264 61.7897 90.2522 61.7715 90.2717C61.7522 90.2905 61.7264 90.3012 61.6995 90.3017L45.7855 90.4157L45.7755 90.4217ZM45.3875 23.2217L45.8735 90.2217L61.5895 90.1077L61.1035 23.1077L45.3875 23.2217Z" fill="#263238"/>
<path d="M48.9211 20.728L48.5991 24.682C48.5513 25.2773 48.2789 25.8322 47.8371 26.234L46.9751 27.016C46.4431 27.5006 46.1167 28.1704 46.0631 28.888L45.3331 39C45.2996 39.4557 45.3782 39.9126 45.5619 40.331C45.7456 40.7493 46.0289 41.1163 46.3871 41.4C46.6875 41.6379 46.9252 41.9455 47.0796 42.2961C47.234 42.6468 47.3004 43.0299 47.2731 43.412L43.7051 92.47L90.0731 95.842L95.2911 24.1L48.9211 20.728Z" fill="#233759"/>
<path d="M90.0736 95.9416L43.6976 92.5696C43.6714 92.5675 43.647 92.5553 43.6296 92.5356C43.6128 92.5155 43.6043 92.4898 43.6056 92.4636L47.1736 43.3996C47.2001 43.0338 47.1367 42.667 46.9889 42.3313C46.8411 41.9956 46.6134 41.7011 46.3256 41.4736C45.9563 41.181 45.6639 40.8028 45.4736 40.3717C45.2833 39.9407 45.2009 39.4697 45.2336 38.9996L45.9696 28.8856C46.022 28.1424 46.3595 27.4481 46.9116 26.9476L47.7736 26.1656C48.1975 25.7823 48.4587 25.2514 48.5036 24.6816L48.8216 20.7256C48.8226 20.7125 48.8262 20.6997 48.8322 20.6879C48.8382 20.6762 48.8464 20.6657 48.8565 20.6572C48.8665 20.6486 48.8781 20.6421 48.8907 20.6381C48.9032 20.6341 48.9165 20.6326 48.9296 20.6336L95.2976 23.9996C95.3107 24.0004 95.3236 24.0038 95.3354 24.0095C95.3473 24.0153 95.3579 24.0233 95.3666 24.0331C95.3754 24.043 95.3821 24.0545 95.3863 24.0669C95.3906 24.0793 95.3924 24.0925 95.3916 24.1056L90.1736 95.8496C90.1716 95.8748 90.1602 95.8982 90.1416 95.9152C90.1231 95.9323 90.0988 95.9417 90.0736 95.9416ZM43.8136 92.3776L89.9816 95.7356L95.1816 24.1916L49.0136 20.8336L48.7036 24.6916C48.6537 25.3129 48.3673 25.8913 47.9036 26.3076L47.0416 27.0896C46.5295 27.5553 46.2153 28.1994 46.1636 28.8896L45.4336 38.9996C45.4008 39.439 45.4763 39.8797 45.6534 40.2832C45.8306 40.6866 46.1039 41.0404 46.4496 41.3136C46.7629 41.5615 47.0108 41.8823 47.1715 42.248C47.3322 42.6137 47.4009 43.0132 47.3716 43.4116L43.8136 92.3776Z" fill="#263238"/>
<path d="M32.0432 93.6003V89.3083C32.0432 88.9789 31.9783 88.6528 31.8522 88.3485C31.7262 88.0442 31.5415 87.7678 31.3086 87.5349C31.0757 87.302 30.7992 87.1172 30.4949 86.9912C30.1906 86.8652 29.8645 86.8003 29.5352 86.8003H53.2012C53.8668 86.8003 54.5053 87.0647 54.976 87.5355C55.4467 88.0062 55.7112 88.6446 55.7112 89.3103V93.6003C55.709 94.2646 55.4437 94.901 54.9732 95.37C54.5027 95.839 53.8655 96.1023 53.2012 96.1023H29.5352C30.1993 96.1023 30.8363 95.8389 31.3065 95.3698C31.7766 94.9008 32.0416 94.2644 32.0432 93.6003Z" fill="#FFAF33"/>
<path d="M53.1996 96.2002H29.5336C29.5071 96.2002 29.4816 96.1897 29.4629 96.171C29.4441 96.1522 29.4336 96.1268 29.4336 96.1002C29.4336 96.0737 29.4441 96.0483 29.4629 96.0295C29.4816 96.0108 29.5071 96.0002 29.5336 96.0002C30.171 95.9976 30.7815 95.7425 31.2313 95.2908C31.6811 94.8392 31.9336 94.2277 31.9336 93.5902V89.3082C31.9331 88.671 31.6804 88.0598 31.2307 87.6082C30.781 87.1567 30.1709 86.9014 29.5336 86.8982C29.5071 86.8982 29.4816 86.8877 29.4629 86.869C29.4441 86.8502 29.4336 86.8248 29.4336 86.7982C29.4336 86.7717 29.4441 86.7463 29.4629 86.7275C29.4816 86.7088 29.5071 86.6982 29.5336 86.6982H53.1996C53.8897 86.7019 54.5504 86.9784 55.0375 87.4674C55.5246 87.9563 55.7985 88.6181 55.7996 89.3082V93.6002C55.7959 94.2887 55.5208 94.9479 55.034 95.4347C54.5472 95.9215 53.888 96.1966 53.1996 96.2002ZM30.5356 96.0002H53.1996C53.8351 95.9971 54.4438 95.7432 54.8932 95.2938C55.3426 94.8444 55.5964 94.2358 55.5996 93.6002V89.3082C55.5985 88.6711 55.3457 88.0603 54.8961 87.6088C54.4465 87.1574 53.8367 86.9019 53.1996 86.8982H30.5336C31.0079 87.0979 31.4127 87.433 31.6974 87.8617C31.982 88.2905 32.1337 88.7937 32.1336 89.3082V93.6002C32.1318 94.1131 31.9791 94.6142 31.6946 95.0409C31.4101 95.4677 31.0063 95.8013 30.5336 96.0002H30.5356Z" fill="#FFAF33"/>
<path d="M8.45953 87.1379L8.17753 86.9539C8.16156 86.9443 8.14923 86.9297 8.14246 86.9124C8.1357 86.895 8.13488 86.876 8.14015 86.8581C8.14541 86.8402 8.15646 86.8246 8.17155 86.8137C8.18664 86.8029 8.20493 86.7973 8.22353 86.7979H29.5335C29.8631 86.7979 30.1893 86.8628 30.4938 86.989C30.7982 87.1152 31.0747 87.3001 31.3077 87.5332C31.5406 87.7663 31.7253 88.043 31.8512 88.3475C31.9771 88.652 32.0418 88.9784 32.0415 89.3079V93.5999C32.0418 93.9294 31.9771 94.2558 31.8512 94.5603C31.7253 94.8648 31.5406 95.1415 31.3077 95.3746C31.0747 95.6077 30.7982 95.7926 30.4938 95.9188C30.1893 96.045 29.8631 96.1099 29.5335 96.1099H8.22353C8.20552 96.1098 8.18802 96.1039 8.17361 96.0931C8.15919 96.0823 8.14863 96.0672 8.14348 96.0499C8.13832 96.0327 8.13885 96.0142 8.14498 95.9973C8.15111 95.9804 8.16252 95.9659 8.17753 95.9559L8.45953 95.7699V87.1379Z" fill="#949494"/>
<path d="M29.5343 96.1999H8.22432C8.18475 96.1998 8.14628 96.1869 8.11462 96.1631C8.08296 96.1394 8.0598 96.1061 8.04858 96.0681C8.03735 96.0302 8.03865 95.9896 8.0523 95.9525C8.06594 95.9153 8.0912 95.8836 8.12432 95.8619L8.36032 95.7059V87.1999L8.12432 87.0439C8.09192 87.0231 8.06706 86.9924 8.05338 86.9564C8.0397 86.9204 8.03793 86.881 8.04832 86.8439C8.05952 86.8059 8.08271 86.7725 8.11442 86.7487C8.14613 86.7249 8.18468 86.712 8.22432 86.7119H29.5343C30.2246 86.7151 30.8856 86.9914 31.3728 87.4805C31.86 87.9695 32.1338 88.6316 32.1343 89.3219V93.5999C32.1312 94.2885 31.8562 94.948 31.3693 95.4349C30.8824 95.9218 30.2229 96.1968 29.5343 96.1999ZM8.27832 95.9999H29.5343C30.1718 95.9973 30.7822 95.7422 31.232 95.2905C31.6818 94.8388 31.9343 94.2274 31.9343 93.5899V89.3079C31.9338 88.6706 31.6811 88.0595 31.2314 87.6079C30.7817 87.1563 30.1716 86.9011 29.5343 86.8979H8.27832L8.51632 87.0539C8.52991 87.0633 8.54101 87.0759 8.54868 87.0905C8.55634 87.1051 8.56034 87.1214 8.56032 87.1379V95.7619C8.56051 95.7785 8.55659 95.7948 8.54891 95.8095C8.54123 95.8241 8.53003 95.8366 8.51632 95.8459L8.27832 95.9999Z" fill="#FFAF33"/>
<path d="M28.4881 95.7642H8.46012V87.1402H28.4881C29.3076 87.1402 30.0936 87.4657 30.6731 88.0452C31.2526 88.6247 31.5781 89.4106 31.5781 90.2302V92.6742C31.5781 93.4937 31.2526 94.2796 30.6731 94.8591C30.0936 95.4386 29.3076 95.7642 28.4881 95.7642Z" fill="white"/>
<path d="M28.4874 95.8621H8.45938C8.43285 95.8621 8.40742 95.8515 8.38866 95.8328C8.36991 95.814 8.35938 95.7886 8.35938 95.7621V87.1381C8.35989 87.1117 8.37059 87.0866 8.38923 87.0679C8.40787 87.0493 8.43301 87.0386 8.45938 87.0381H28.4874C29.3326 87.0407 30.1425 87.3777 30.7401 87.9753C31.3378 88.573 31.6747 89.3829 31.6774 90.2281V92.6721C31.6747 93.5173 31.3378 94.3272 30.7401 94.9248C30.1425 95.5225 29.3326 95.8594 28.4874 95.8621ZM8.55938 95.6621H28.4874C29.2796 95.6594 30.0385 95.3436 30.5987 94.7834C31.1589 94.2233 31.4747 93.4643 31.4774 92.6721V90.2281C31.4747 89.4359 31.1589 88.6769 30.5987 88.1167C30.0385 87.5566 29.2796 87.2407 28.4874 87.2381H8.55938V95.6621Z" fill="#FFAF33"/>
<path d="M30.8535 88.826H22.5395C22.5129 88.826 22.4875 88.8154 22.4687 88.7967C22.45 88.7779 22.4395 88.7525 22.4395 88.726C22.4395 88.6995 22.45 88.674 22.4687 88.6553C22.4875 88.6365 22.5129 88.626 22.5395 88.626H30.8535C30.88 88.626 30.9054 88.6365 30.9242 88.6553C30.9429 88.674 30.9535 88.6995 30.9535 88.726C30.9535 88.7525 30.9429 88.7779 30.9242 88.7967C30.9054 88.8154 30.88 88.826 30.8535 88.826Z" fill="#FFAF33"/>
<path d="M24.7252 89.616H16.9672C16.9408 89.6155 16.9157 89.6048 16.897 89.5862C16.8784 89.5675 16.8677 89.5424 16.8672 89.516C16.8672 89.4895 16.8777 89.4641 16.8965 89.4453C16.9152 89.4266 16.9407 89.416 16.9672 89.416H24.7252C24.7517 89.416 24.7771 89.4266 24.7959 89.4453C24.8147 89.4641 24.8252 89.4895 24.8252 89.516C24.8247 89.5424 24.814 89.5675 24.7953 89.5862C24.7767 89.6048 24.7515 89.6155 24.7252 89.616Z" fill="#FFAF33"/>
<path d="M27.4636 90.5999H20.0316C20.0051 90.5999 19.9797 90.5894 19.9609 90.5706C19.9422 90.5519 19.9316 90.5264 19.9316 90.4999C19.9316 90.4734 19.9422 90.4479 19.9609 90.4292C19.9797 90.4104 20.0051 90.3999 20.0316 90.3999H27.4636C27.4902 90.3999 27.5156 90.4104 27.5344 90.4292C27.5531 90.4479 27.5636 90.4734 27.5636 90.4999C27.5636 90.5264 27.5531 90.5519 27.5344 90.5706C27.5156 90.5894 27.4902 90.5999 27.4636 90.5999Z" fill="#FFAF33"/>
<path d="M30.6692 93.5643H25.8012C25.7747 93.5643 25.7492 93.5537 25.7305 93.535C25.7117 93.5162 25.7012 93.4908 25.7012 93.4643C25.7012 93.4377 25.7117 93.4123 25.7305 93.3935C25.7492 93.3748 25.7747 93.3643 25.8012 93.3643H30.6772C30.7037 93.3643 30.7291 93.3748 30.7479 93.3935C30.7666 93.4123 30.7772 93.4377 30.7772 93.4643C30.7772 93.4781 30.7744 93.4918 30.7689 93.5045C30.7634 93.5172 30.7553 93.5286 30.7451 93.538C30.735 93.5474 30.723 93.5545 30.7099 93.5591C30.6968 93.5636 30.683 93.5654 30.6692 93.5643Z" fill="#FFAF33"/>
<path d="M27.0463 94.2601H19.7543C19.7278 94.2601 19.7023 94.2495 19.6836 94.2308C19.6648 94.212 19.6543 94.1866 19.6543 94.1601C19.6543 94.1335 19.6648 94.1081 19.6836 94.0893C19.7023 94.0706 19.7278 94.0601 19.7543 94.0601H27.0463C27.0728 94.0601 27.0983 94.0706 27.117 94.0893C27.1358 94.1081 27.1463 94.1335 27.1463 94.1601C27.1463 94.1866 27.1358 94.212 27.117 94.2308C27.0983 94.2495 27.0728 94.2601 27.0463 94.2601Z" fill="#FFAF33"/>
<path d="M27.9289 94.91H25.9789C25.9524 94.91 25.927 94.8994 25.9082 94.8807C25.8894 94.8619 25.8789 94.8365 25.8789 94.81C25.8789 94.7834 25.8894 94.758 25.9082 94.7393C25.927 94.7205 25.9524 94.71 25.9789 94.71H27.9289C27.9554 94.71 27.9809 94.7205 27.9996 94.7393C28.0184 94.758 28.0289 94.7834 28.0289 94.81C28.0289 94.8365 28.0184 94.8619 27.9996 94.8807C27.9809 94.8994 27.9554 94.91 27.9289 94.91Z" fill="#FFAF33"/>
<path d="M22.4492 92.9139H10.0492C10.0227 92.9139 9.99726 92.9033 9.97851 92.8846C9.95975 92.8658 9.94922 92.8404 9.94922 92.8139C9.94922 92.7873 9.95975 92.7619 9.97851 92.7432C9.99726 92.7244 10.0227 92.7139 10.0492 92.7139H22.4492C22.4757 92.7139 22.5012 92.7244 22.5199 92.7432C22.5387 92.7619 22.5492 92.7873 22.5492 92.8139C22.5487 92.8402 22.538 92.8654 22.5194 92.884C22.5007 92.9027 22.4756 92.9134 22.4492 92.9139Z" fill="#FFAF33"/>
<path d="M11.16 90.9163H8.6C8.57348 90.9163 8.54804 90.9058 8.52929 90.887C8.51054 90.8683 8.5 90.8428 8.5 90.8163C8.5 90.7898 8.51054 90.7644 8.52929 90.7456C8.54804 90.7268 8.57348 90.7163 8.6 90.7163H11.16C11.1865 90.7163 11.212 90.7268 11.2307 90.7456C11.2495 90.7644 11.26 90.7898 11.26 90.8163C11.26 90.8428 11.2495 90.8683 11.2307 90.887C11.212 90.9058 11.1865 90.9163 11.16 90.9163Z" fill="#FFAF33"/>
<path d="M11.6238 90.2659H9.02383C8.99731 90.2659 8.97187 90.2554 8.95312 90.2366C8.93436 90.2179 8.92383 90.1924 8.92383 90.1659C8.92383 90.1394 8.93436 90.114 8.95312 90.0952C8.97187 90.0765 8.99731 90.0659 9.02383 90.0659H11.6238C11.6503 90.0659 11.6758 90.0765 11.6945 90.0952C11.7133 90.114 11.7238 90.1394 11.7238 90.1659C11.7238 90.1924 11.7133 90.2179 11.6945 90.2366C11.6758 90.2554 11.6503 90.2659 11.6238 90.2659Z" fill="#FFAF33"/>
<path d="M15.5258 94.4461H9.02383C8.99731 94.4461 8.97187 94.4356 8.95312 94.4168C8.93436 94.398 8.92383 94.3726 8.92383 94.3461C8.92383 94.3196 8.93436 94.2941 8.95312 94.2754C8.97187 94.2566 8.99731 94.2461 9.02383 94.2461H15.5258C15.5523 94.2461 15.5778 94.2566 15.5965 94.2754C15.6153 94.2941 15.6258 94.3196 15.6258 94.3461C15.6258 94.3726 15.6153 94.398 15.5965 94.4168C15.5778 94.4356 15.5523 94.4461 15.5258 94.4461Z" fill="#FFAF33"/>
<path d="M33.1604 84.2442V79.9602C33.1604 79.2945 32.8959 78.6561 32.4252 78.1854C31.9545 77.7146 31.3161 77.4502 30.6504 77.4502H54.3144C54.9801 77.4502 55.6185 77.7146 56.0892 78.1854C56.5599 78.6561 56.8244 79.2945 56.8244 79.9602V84.2442C56.8244 84.9099 56.5599 85.5483 56.0892 86.019C55.6185 86.4897 54.9801 86.7542 54.3144 86.7542H30.6504C31.3161 86.7542 31.9545 86.4897 32.4252 86.019C32.8959 85.5483 33.1604 84.9099 33.1604 84.2442Z" fill="#8C8C8C"/>
<path d="M54.3148 86.8541H30.6508C30.6243 86.8541 30.5988 86.8436 30.5801 86.8248C30.5613 86.8061 30.5508 86.7806 30.5508 86.7541C30.5508 86.7276 30.5613 86.7021 30.5801 86.6834C30.5988 86.6646 30.6243 86.6541 30.6508 86.6541C31.2881 86.6536 31.8992 86.4009 32.3508 85.9512C32.8024 85.5015 33.0576 84.8914 33.0608 84.2541V79.9601C33.0597 79.3212 32.8055 78.7089 32.3537 78.2571C31.902 77.8054 31.2896 77.5512 30.6508 77.5501C30.6243 77.5501 30.5988 77.5396 30.5801 77.5208C30.5613 77.5021 30.5508 77.4766 30.5508 77.4501C30.5508 77.4236 30.5613 77.3981 30.5801 77.3794C30.5988 77.3606 30.6243 77.3501 30.6508 77.3501H54.3148C55.0067 77.3512 55.6699 77.6265 56.1592 78.1157C56.6484 78.605 56.9237 79.2682 56.9248 79.9601V84.2441C56.9243 84.9362 56.6491 85.5997 56.1597 86.0891C55.6704 86.5784 55.0068 86.8536 54.3148 86.8541ZM31.6528 86.6541H54.3148C54.9521 86.6536 55.5632 86.4009 56.0148 85.9512C56.4664 85.5015 56.7216 84.8914 56.7248 84.2541V79.9601C56.7237 79.3212 56.4695 78.7089 56.0177 78.2571C55.566 77.8054 54.9536 77.5512 54.3148 77.5501H31.6528C32.1269 77.7499 32.5316 78.0852 32.8162 78.5138C33.1008 78.9425 33.2527 79.4456 33.2528 79.9601V84.2441C33.2527 84.7586 33.1008 85.2617 32.8162 85.6904C32.5316 86.119 32.1269 86.4543 31.6528 86.6541Z" fill="#FFAF33"/>
<path d="M9.57743 77.8003L9.29343 77.6003C9.27842 77.5903 9.26701 77.5758 9.26088 77.5589C9.25475 77.542 9.25422 77.5235 9.25937 77.5062C9.26453 77.489 9.27509 77.4738 9.2895 77.463C9.30392 77.4523 9.32142 77.4464 9.33943 77.4463H30.6494C30.9794 77.4463 31.3061 77.5113 31.6109 77.6377C31.9157 77.7641 32.1926 77.9494 32.4257 78.1829C32.6588 78.4164 32.8436 78.6935 32.9695 78.9985C33.0954 79.3035 33.16 79.6303 33.1594 79.9603V84.2443C33.1594 84.91 32.895 85.5484 32.4243 86.0191C31.9536 86.4898 31.3151 86.7543 30.6494 86.7543H9.33943C9.32142 86.7542 9.30392 86.7483 9.2895 86.7375C9.27509 86.7267 9.26453 86.7116 9.25937 86.6943C9.25422 86.6771 9.25475 86.6586 9.26088 86.6417C9.26701 86.6248 9.27842 86.6102 9.29343 86.6003L9.57743 86.4143V77.8003Z" fill="#949494"/>
<path d="M30.6496 86.8541H9.33955C9.29983 86.8543 9.26113 86.8415 9.22935 86.8177C9.19757 86.7939 9.17447 86.7603 9.16355 86.7221C9.15409 86.685 9.15632 86.6459 9.16992 86.6101C9.18352 86.5743 9.20784 86.5436 9.23955 86.5221L9.47755 86.3661V77.8441L9.23955 77.6881C9.20643 77.6664 9.18118 77.6347 9.16753 77.5975C9.15389 77.5604 9.15258 77.5198 9.16381 77.4819C9.17504 77.444 9.1982 77.4106 9.22986 77.3869C9.26151 77.3631 9.29998 77.3502 9.33955 77.3501H30.6496C31.3414 77.3512 32.0047 77.6265 32.4939 78.1157C32.9832 78.605 33.2585 79.2682 33.2596 79.9601V84.2441C33.2585 84.936 32.9832 85.5992 32.4939 86.0885C32.0047 86.5777 31.3414 86.853 30.6496 86.8541ZM9.39955 86.6541H30.6496C31.2868 86.6536 31.898 86.4009 32.3496 85.9512C32.8011 85.5015 33.0564 84.8914 33.0596 84.2541V79.9601C33.0585 79.3212 32.8042 78.7089 32.3525 78.2571C31.9008 77.8054 31.2884 77.5512 30.6496 77.5501H9.39955L9.63755 77.7061C9.65139 77.7154 9.66279 77.7279 9.6708 77.7425C9.6788 77.7571 9.68318 77.7734 9.68355 77.7901V86.4141C9.68353 86.4308 9.6793 86.4473 9.67126 86.462C9.66323 86.4766 9.65164 86.4891 9.63755 86.4981L9.39955 86.6541Z" fill="#FFAF33"/>
<path d="M29.8213 86.4043H9.5793V77.7803H29.8213C30.1996 77.7803 30.5741 77.855 30.9234 78C31.2728 78.1451 31.5901 78.3577 31.8571 78.6256C32.1241 78.8935 32.3356 79.2116 32.4794 79.5614C32.6232 79.9112 32.6966 80.286 32.6953 80.6643V83.5403C32.6926 84.3008 32.3887 85.0292 31.85 85.5661C31.3113 86.1029 30.5818 86.4043 29.8213 86.4043Z" fill="white"/>
<path d="M29.8205 86.5142H9.57852C9.55199 86.5142 9.52656 86.5037 9.5078 86.4849C9.48905 86.4662 9.47852 86.4407 9.47852 86.4142V77.8002C9.47852 77.7737 9.48905 77.7482 9.5078 77.7295C9.52656 77.7107 9.55199 77.7002 9.57852 77.7002H29.8205C30.6083 77.6997 31.3641 78.0113 31.9226 78.5668C32.4812 79.1223 32.7968 79.8765 32.8005 80.6642V83.5402C32.7995 84.3297 32.485 85.0864 31.9262 85.6441C31.3674 86.2018 30.61 86.5147 29.8205 86.5142ZM9.67852 86.3142H29.8205C30.1852 86.3147 30.5465 86.2434 30.8836 86.1042C31.2207 85.9651 31.5272 85.7609 31.7853 85.5032C32.0435 85.2456 32.2484 84.9397 32.3882 84.6028C32.5281 84.266 32.6003 83.9049 32.6005 83.5402V80.6642C32.6 79.9286 32.3076 79.2234 31.7874 78.7033C31.2673 78.1832 30.5621 77.8907 29.8265 77.8902H9.67852V86.3142Z" fill="#FFAF33"/>
<path d="M31.9726 79.4783H23.6566C23.6303 79.4778 23.6051 79.4671 23.5865 79.4485C23.5679 79.4298 23.5572 79.4047 23.5566 79.3783C23.5566 79.3518 23.5672 79.3264 23.5859 79.3076C23.6047 79.2889 23.6301 79.2783 23.6566 79.2783H31.9726C31.9992 79.2783 32.0246 79.2889 32.0434 79.3076C32.0621 79.3264 32.0726 79.3518 32.0726 79.3783C32.0721 79.4047 32.0614 79.4298 32.0428 79.4485C32.0241 79.4671 31.999 79.4778 31.9726 79.4783Z" fill="#FFAF33"/>
<path d="M25.8404 80.2679H18.0844C18.0579 80.2679 18.0324 80.2573 18.0137 80.2386C17.9949 80.2198 17.9844 80.1944 17.9844 80.1679C17.9844 80.1413 17.9949 80.1159 18.0137 80.0972C18.0324 80.0784 18.0579 80.0679 18.0844 80.0679H25.8404C25.8669 80.0679 25.8923 80.0784 25.9111 80.0972C25.9298 80.1159 25.9404 80.1413 25.9404 80.1679C25.9404 80.1944 25.9298 80.2198 25.9111 80.2386C25.8923 80.2573 25.8669 80.2679 25.8404 80.2679Z" fill="#FFAF33"/>
<path d="M28.5808 81.242H21.1488C21.1223 81.242 21.0969 81.2315 21.0781 81.2127C21.0594 81.194 21.0488 81.1685 21.0488 81.142C21.0493 81.1156 21.06 81.0905 21.0787 81.0719C21.0973 81.0532 21.1225 81.0425 21.1488 81.042H28.5808C28.6073 81.042 28.6328 81.0525 28.6515 81.0713C28.6703 81.09 28.6808 81.1155 28.6808 81.142C28.6808 81.1685 28.6703 81.194 28.6515 81.2127C28.6328 81.2315 28.6073 81.242 28.5808 81.242Z" fill="#FFAF33"/>
<path d="M31.7866 84.2161H26.9086C26.8821 84.2161 26.8566 84.2056 26.8379 84.1868C26.8191 84.1681 26.8086 84.1426 26.8086 84.1161C26.8086 84.0896 26.8191 84.0642 26.8379 84.0454C26.8566 84.0267 26.8821 84.0161 26.9086 84.0161H31.7866C31.8131 84.0161 31.8386 84.0267 31.8573 84.0454C31.8761 84.0642 31.8866 84.0896 31.8866 84.1161C31.8861 84.1425 31.8754 84.1676 31.8567 84.1863C31.8381 84.2049 31.813 84.2156 31.7866 84.2161Z" fill="#FFAF33"/>
<path d="M28.1615 84.9119H20.8695C20.843 84.9119 20.8176 84.9014 20.7988 84.8826C20.7801 84.8639 20.7695 84.8384 20.7695 84.8119C20.7695 84.7854 20.7801 84.76 20.7988 84.7412C20.8176 84.7225 20.843 84.7119 20.8695 84.7119H28.1615C28.1881 84.7119 28.2135 84.7225 28.2322 84.7412C28.251 84.76 28.2615 84.7854 28.2615 84.8119C28.2615 84.8384 28.251 84.8639 28.2322 84.8826C28.2135 84.9014 28.1881 84.9119 28.1615 84.9119Z" fill="#FFAF33"/>
<path d="M29.0441 85.5623H27.0941C27.0676 85.5623 27.0422 85.5518 27.0234 85.533C27.0047 85.5143 26.9941 85.4888 26.9941 85.4623C26.9941 85.4358 27.0047 85.4103 27.0234 85.3916C27.0422 85.3728 27.0676 85.3623 27.0941 85.3623H29.0441C29.0707 85.3623 29.0961 85.3728 29.1148 85.3916C29.1336 85.4103 29.1441 85.4358 29.1441 85.4623C29.1441 85.4888 29.1336 85.5143 29.1148 85.533C29.0961 85.5518 29.0707 85.5623 29.0441 85.5623Z" fill="#FFAF33"/>
<path d="M23.5645 83.5662H11.1645C11.1379 83.5662 11.1125 83.5557 11.0937 83.5369C11.075 83.5182 11.0645 83.4927 11.0645 83.4662C11.0645 83.4397 11.075 83.4143 11.0937 83.3955C11.1125 83.3767 11.1379 83.3662 11.1645 83.3662H23.5645C23.591 83.3662 23.6164 83.3767 23.6352 83.3955C23.6539 83.4143 23.6645 83.4397 23.6645 83.4662C23.6645 83.4927 23.6539 83.5182 23.6352 83.5369C23.6164 83.5557 23.591 83.5662 23.5645 83.5662Z" fill="#FFAF33"/>
<path d="M12.277 81.5682H9.72305C9.69653 81.5682 9.67109 81.5576 9.65234 81.5389C9.63358 81.5201 9.62305 81.4947 9.62305 81.4682C9.62305 81.4416 9.63358 81.4162 9.65234 81.3975C9.67109 81.3787 9.69653 81.3682 9.72305 81.3682H12.277C12.3036 81.3682 12.329 81.3787 12.3478 81.3975C12.3665 81.4162 12.377 81.4416 12.377 81.4682C12.377 81.4947 12.3665 81.5201 12.3478 81.5389C12.329 81.5576 12.3036 81.5682 12.277 81.5682Z" fill="#FFAF33"/>
<path d="M12.743 80.9183H10.143C10.1164 80.9183 10.091 80.9077 10.0723 80.889C10.0535 80.8702 10.043 80.8448 10.043 80.8183C10.043 80.7917 10.0535 80.7663 10.0723 80.7476C10.091 80.7288 10.1164 80.7183 10.143 80.7183H12.743C12.7561 80.7183 12.7691 80.7208 12.7812 80.7259C12.7934 80.7309 12.8044 80.7383 12.8137 80.7476C12.823 80.7568 12.8303 80.7679 12.8354 80.78C12.8404 80.7921 12.843 80.8051 12.843 80.8183C12.8425 80.8446 12.8318 80.8698 12.8131 80.8884C12.7945 80.9071 12.7693 80.9177 12.743 80.9183Z" fill="#FFAF33"/>
<path d="M16.645 85.0979H10.141C10.1145 85.0979 10.0891 85.0874 10.0703 85.0687C10.0516 85.0499 10.041 85.0245 10.041 84.9979C10.041 84.9714 10.0516 84.946 10.0703 84.9272C10.0891 84.9085 10.1145 84.8979 10.141 84.8979H16.645C16.6715 84.8979 16.697 84.9085 16.7157 84.9272C16.7345 84.946 16.745 84.9714 16.745 84.9979C16.745 85.0245 16.7345 85.0499 16.7157 85.0687C16.697 85.0874 16.6715 85.0979 16.645 85.0979Z" fill="#FFAF33"/>
<path d="M13.5332 91.71L15.4452 89.798L17.3512 91.71V80.812H13.5332V91.71Z" fill="#FFAF33"/>
<path d="M17.3497 91.8099C17.3366 91.8101 17.3236 91.8075 17.3116 91.8023C17.2995 91.7972 17.2887 91.7895 17.2797 91.7799L15.4437 89.9399L13.5997 91.7799C13.5853 91.7935 13.5673 91.8028 13.5479 91.8067C13.5284 91.8105 13.5083 91.8089 13.4897 91.8019C13.4716 91.7942 13.4561 91.7814 13.4451 91.7651C13.4341 91.7488 13.4281 91.7296 13.4277 91.7099V80.8119C13.4277 80.7854 13.4383 80.76 13.457 80.7412C13.4758 80.7225 13.5012 80.7119 13.5277 80.7119H17.3497C17.3763 80.7119 17.4017 80.7225 17.4204 80.7412C17.4392 80.76 17.4497 80.7854 17.4497 80.8119V91.7099C17.4496 91.7297 17.4437 91.7489 17.4327 91.7653C17.4216 91.7817 17.406 91.7944 17.3877 91.8019C17.3756 91.8067 17.3628 91.8094 17.3497 91.8099ZM13.6317 80.9119V91.4679L15.3717 89.7279C15.3913 89.7095 15.4169 89.6988 15.4437 89.6979C15.4701 89.6985 15.4951 89.7093 15.5137 89.7279L17.2497 91.4679V80.9119H13.6317Z" fill="#FFAF33"/>
<g clip-path="url(#clip0_5122_16034)">
<path d="M55.5567 55.3502C55.4177 55.5479 55.2207 55.5307 55.1183 55.3118L53.9129 52.77C53.8104 52.5511 53.9206 52.389 54.1684 52.4107L56.99 52.6512C57.2315 52.6723 57.3182 52.8517 57.1793 53.0494L55.5567 55.3502Z" fill="#F3F6FB"/>
<path d="M56.0366 56.5246C55.9195 56.6925 55.8947 56.9765 55.9814 57.1559L57.2124 59.7699C57.3149 59.9888 57.5119 60.006 57.6509 59.8083L65.6443 48.4276C65.7832 48.2299 65.6965 48.0505 65.455 48.0294L62.5635 47.7828C62.3602 47.765 62.0997 47.8885 61.9832 48.0501L56.0366 56.5246Z" fill="url(#paint0_linear_5122_16034)"/>
<path d="M63.902 53.3386C63.6733 53.3186 63.4531 53.4202 63.3217 53.6059L59.0201 59.7434C58.9099 59.9055 59.0124 60.1244 59.2094 60.1416L59.5143 60.1683L64.2827 53.3782L63.902 53.3386Z" fill="#F37921"/>
<path d="M87.0485 55.3634L64.2832 53.3717L59.5149 60.1618L86.4255 62.4844C86.5653 62.4966 86.6896 62.393 86.7018 62.2541L87.2806 55.6382C87.2927 55.4993 87.1883 55.3756 87.0485 55.3634Z" fill="url(#paint1_linear_5122_16034)"/>
<path d="M64.7941 59.3008L64.1119 54.731L64.1078 54.7052C64.1111 54.6673 64.1381 54.6506 64.1953 54.6556L64.9514 54.7218C65.0086 54.7268 65.0445 54.7554 65.0406 54.7996L65.3907 58.0426C65.396 58.0558 65.4018 58.0627 65.4145 58.0638C65.4272 58.0649 65.4341 58.0591 65.4416 58.047L66.3177 54.9113C66.3285 54.8613 66.3625 54.8389 66.4197 54.8439L67.1503 54.9078C67.2139 54.9134 67.2365 54.9471 67.2189 55.0028L65.7593 59.3916C65.7422 59.441 65.7082 59.4635 65.6574 59.459L64.8949 59.3923C64.8325 59.3741 64.8029 59.3461 64.7941 59.3008Z" fill="white"/>
<path d="M68.9756 59.6605L68.8902 58.9533C68.8919 58.9343 68.8803 58.9206 68.8485 58.9178L67.7557 58.8222C67.7239 58.8194 67.7101 58.831 67.7084 58.8499L67.5079 59.5321C67.4971 59.582 67.4632 59.6045 67.406 59.5995L66.7261 59.54C66.6562 59.5339 66.6336 59.5001 66.6513 59.4444L68.1426 55.0584C68.1597 55.009 68.1937 54.9866 68.2445 54.991L69.0387 55.0605C69.0959 55.0655 69.1255 55.0935 69.128 55.1383L69.8483 59.7114L69.8461 59.7366C69.8428 59.7745 69.8157 59.7912 69.7585 59.7862L69.0659 59.7256C69.0077 59.7333 68.9781 59.7052 68.9756 59.6605ZM67.9358 58.2273L68.7681 58.3001C68.7999 58.3029 68.8137 58.2914 68.809 58.2719L68.5534 56.144C68.5481 56.1308 68.5423 56.1239 68.5296 56.1228C68.5169 56.1217 68.51 56.1275 68.5026 56.1395L67.8935 58.1982C67.8988 58.2113 67.9104 58.2251 67.9358 58.2273Z" fill="white"/>
<path d="M72.33 59.9539L71.8546 57.9975C71.8435 57.9775 71.8314 57.9701 71.8186 57.969L71.4247 57.9345C71.3993 57.9323 71.3855 57.9438 71.3838 57.9627L71.2256 59.8445C71.2239 59.8635 71.2159 59.8818 71.1952 59.8991C71.175 59.9101 71.1549 59.921 71.1295 59.9188L70.4433 59.8588C70.4179 59.8565 70.3993 59.8486 70.3819 59.828C70.364 59.8137 70.3593 59.7942 70.3615 59.7689L70.7467 55.2925C70.7484 55.2736 70.7564 55.2552 70.7771 55.2379C70.7973 55.227 70.8174 55.216 70.8429 55.2182L72.247 55.3411C72.5139 55.3644 72.7376 55.4413 72.931 55.5727C73.1244 55.7041 73.2694 55.8758 73.3598 56.0873C73.4501 56.2987 73.4927 56.5442 73.4695 56.8093C73.4457 57.0808 73.3675 57.3157 73.2297 57.5008C73.0913 57.6923 72.9134 57.823 72.6885 57.9051C72.6689 57.9098 72.6615 57.9218 72.6598 57.9408L73.2223 60.0001C73.2281 60.007 73.227 60.0196 73.2259 60.0322C73.2226 60.0701 73.1955 60.0868 73.1383 60.0818L72.4204 60.019C72.3753 60.0214 72.3452 59.9997 72.33 59.9539ZM71.5573 55.9805L71.4418 57.2999C71.4396 57.3251 71.4518 57.3325 71.4772 57.3348L71.9346 57.3748C72.1126 57.3903 72.2642 57.34 72.3891 57.2301C72.5145 57.1138 72.5797 56.9541 72.5985 56.7395C72.6172 56.5248 72.5744 56.3557 72.4711 56.2194C72.3678 56.0832 72.2272 56.0073 72.0493 55.9917L71.5918 55.9517C71.5727 55.95 71.5589 55.9615 71.5573 55.9805Z" fill="white"/>
<path d="M73.8273 60.1229C73.8093 60.1086 73.8046 60.0891 73.8068 60.0638L74.192 55.5874C74.1937 55.5685 74.2017 55.5501 74.2224 55.5328C74.2426 55.5219 74.2628 55.5109 74.2882 55.5132L74.9744 55.5732C74.9998 55.5754 75.0183 55.5834 75.0357 55.604C75.0537 55.6183 75.0583 55.6378 75.0561 55.663L74.6709 60.1394C74.6692 60.1584 74.6612 60.1768 74.6405 60.194C74.6204 60.205 74.6002 60.2159 74.5748 60.2137L73.8886 60.1537C73.8632 60.1515 73.8447 60.1435 73.8273 60.1229Z" fill="white"/>
<path d="M75.7941 60.0278C75.5599 59.7783 75.4529 59.4636 75.4855 59.0912L75.6769 56.8306C75.71 56.4518 75.8636 56.1599 76.1371 55.9612C76.4106 55.7625 76.7636 55.6789 77.1893 55.7161C77.615 55.7534 77.9551 55.8912 78.1893 56.1407C78.4305 56.3845 78.5311 56.6986 78.4979 57.0774L78.4908 57.1595C78.4886 57.1847 78.4805 57.2031 78.4604 57.2141C78.4397 57.2313 78.42 57.236 78.3946 57.2338L77.6999 57.1984C77.6427 57.1934 77.6131 57.1654 77.6181 57.1086L77.6325 56.9444C77.6457 56.7929 77.6059 56.6622 77.5131 56.5523C77.4197 56.4487 77.2907 56.3865 77.1319 56.3727C76.973 56.3588 76.8415 56.3981 76.7316 56.4839C76.6217 56.5697 76.5661 56.6921 76.5523 56.8499L76.351 59.2241C76.3378 59.3756 76.3775 59.5063 76.4704 59.6162C76.5637 59.7198 76.6864 59.7815 76.8452 59.7954C77.0104 59.8098 77.1483 59.771 77.2519 59.6846C77.3618 59.5988 77.4173 59.4765 77.4311 59.3186L77.4455 59.1545C77.4472 59.1356 77.4552 59.1172 77.4759 59.0999C77.4961 59.0889 77.5162 59.078 77.5416 59.0802L78.232 59.1661C78.2574 59.1683 78.2759 59.1763 78.2933 59.1969C78.3113 59.2112 78.316 59.2307 78.3137 59.2559L78.3066 59.338C78.274 59.7104 78.1204 60.0023 77.84 60.2068C77.5596 60.4113 77.2066 60.4949 76.7809 60.4577C76.3616 60.421 76.0347 60.2779 75.7941 60.0278Z" fill="white"/>
<path d="M79.2199 60.315C78.9792 60.0649 78.8729 59.7439 78.906 59.3651L79.0946 57.1361C79.1278 56.7573 79.2813 56.4654 79.5686 56.2552C79.849 56.0507 80.2026 55.9608 80.6347 55.9986C81.0604 56.0359 81.3999 56.1801 81.6468 56.4307C81.8938 56.6813 82.0002 57.0023 81.967 57.3811L81.7784 59.6101C81.7453 59.9888 81.5848 60.2865 81.3044 60.491C81.0177 60.6949 80.6641 60.7848 80.2384 60.7476C79.8127 60.7103 79.4599 60.5713 79.2199 60.315ZM80.7099 59.9682C80.8204 59.8761 80.8897 59.7422 80.9047 59.5718L81.0988 57.2797C81.1137 57.1092 81.0745 56.9722 80.9753 56.8617C80.8761 56.7513 80.7477 56.6828 80.5761 56.6678C80.4046 56.6528 80.2667 56.6916 80.1557 56.79C80.0452 56.8821 79.9822 57.0166 79.9673 57.187L79.7731 59.4792C79.7582 59.6496 79.7975 59.7866 79.8897 59.9028C79.9826 60.0127 80.111 60.0812 80.2826 60.0962C80.4547 60.1049 80.5931 60.0598 80.7099 59.9682Z" fill="white"/>
<path d="M84.9285 56.4504C84.9487 56.4395 84.9689 56.4285 84.9943 56.4307L85.6741 56.4902C85.6996 56.4925 85.7181 56.5004 85.7355 56.521C85.7534 56.5353 85.7581 56.5548 85.7559 56.5801L85.3707 61.0565C85.369 61.0754 85.361 61.0938 85.3403 61.1111C85.3201 61.122 85.3 61.133 85.2745 61.1308L84.4867 61.0618C84.4359 61.0574 84.4057 61.0357 84.3969 60.9904L83.5244 58.0833C83.5192 58.0701 83.5134 58.0632 83.5007 58.0621C83.488 58.061 83.4805 58.0731 83.4794 58.0857L83.248 60.8771C83.2463 60.8961 83.2383 60.9145 83.2176 60.9317C83.1974 60.9427 83.1773 60.9536 83.1519 60.9514L82.472 60.8919C82.4466 60.8897 82.4281 60.8817 82.4107 60.8611C82.3927 60.8468 82.388 60.8273 82.3902 60.8021L82.7755 56.3257C82.7771 56.3067 82.7851 56.2884 82.8059 56.2711C82.826 56.2601 82.8462 56.2492 82.8716 56.2514L83.6404 56.3187C83.6912 56.3231 83.7213 56.3448 83.7302 56.3901L84.6107 59.2788C84.6159 59.292 84.6217 59.2989 84.6344 59.3C84.6471 59.3011 84.6546 59.289 84.6557 59.2764L84.8918 56.5045C84.8998 56.4861 84.9078 56.4677 84.9285 56.4504Z" fill="white"/>
</g>
<defs>
<linearGradient id="paint0_linear_5122_16034" x1="56.0456" y1="68.6619" x2="66.2179" y2="68.3616" gradientUnits="userSpaceOnUse">
<stop stop-color="#F37A21"/>
<stop offset="1" stop-color="#FBAD35"/>
</linearGradient>
<linearGradient id="paint1_linear_5122_16034" x1="62.7322" y1="65.4868" x2="85.1043" y2="51.9507" gradientUnits="userSpaceOnUse">
<stop stop-color="#243859"/>
<stop offset="0.191" stop-color="#2C3959"/>
<stop offset="0.5025" stop-color="#3D3D58"/>
<stop offset="0.8935" stop-color="#554556"/>
<stop offset="1" stop-color="#5C4755"/>
</linearGradient>
<clipPath id="clip0_5122_16034">
<rect width="36.2" height="14.8" fill="white" transform="translate(53.1133 45.8506) rotate(5)"/>
</clipPath>
</defs>
</svg>
